<svg width="365" height="365" viewBox="0 0 365 365" fill="none" xmlns="http://www.w3.org/2000/svg">
<path d="M257.171 11H261.088L261.72 11.625L262.605 12.625L263.11 13.75L263.363 15.25L263.11 17.375L262.352 19.5L261.341 21.75L260.078 24.125L258.688 26.625L257.929 28.125L256.287 31L254.518 34.25L252.749 37.25L251.233 40.125L249.716 42.875L248.705 44.75L247.315 47.625L245.547 51.25L243.904 55.125L242.388 59L242.261 59.375L243.398 59L245.673 58L248.705 56.375L252.243 54.25L255.276 52.5L258.309 50.625L260.709 49.125L265.384 46L267.153 44.75L269.428 43.125L271.576 41.5L275.114 38.75L276.883 37.25L278.273 36.125L279.789 34.75L280.8 33.875L282.316 32.5L283.58 31.375L285.602 29.375H285.854V29.125L286.865 28.25L289.266 25.875L290.277 25L291.919 23.375L292.93 22.5L294.194 21.25H294.447V21L295.71 20L296.974 19.375L297.732 19.125H299.374L300.385 19.625L301.143 20.75L301.396 22V23L301.017 25.125L300.006 28.125L298.616 31.25L296.847 34.75L295.584 37L294.067 39.75L291.54 44.25L290.529 46.25L289.013 49.125L288.002 51.125L286.991 53L285.602 55.875L283.959 59.25L282.569 62.375L280.926 66.375L279.284 70.625L277.262 76.5L275.872 81.25L274.861 85.75L273.471 93.5L272.84 97.75L272.334 104.875L272.081 109.125L271.45 114.75L271.829 115.75L272.966 117.125L274.482 118.875L275.619 120.25L277.262 122.125L278.273 123.375L279.663 125L281.053 126.75L282.822 129.25L284.843 132.25L286.612 135L288.129 137.5L289.392 139.75L290.403 141.5L291.414 143.5L293.309 147.5L294.952 151.5L296.089 154.75L296.974 157.75L297.984 161.875L298.995 167.25L300.006 173.625L300.385 176.875V180.375L299.88 185.375L299.374 189.375L299.122 191.875V196.375L299.627 199.375L300.385 201.875L301.649 204.625L302.912 206.75L304.429 208.875L306.071 211L307.461 212.75L309.104 214.75L310.747 216.875L312.01 218.375L313.274 220L314.664 221.75L316.938 224.5L318.581 226.375L321.613 229.875L322.75 231.25L324.393 233.125L327.426 236.625L328.563 238L329.953 239.5L330.964 240.25L333.364 241.5L336.523 242.875L338.798 243.875L341.325 245.25L343.094 246.5L344.736 248.125L345.621 249.5L346 250.125V254.625H345.747L344.989 256.125L343.473 258.5L342.336 260.125L340.819 261.75L340.693 262H340.44V262.25H340.188V262.5H339.935V262.75L338.924 263.625L337.787 264.625L335.765 266.125L334.122 267.125L332.606 268L329.953 269.125L327.299 269.875L319.844 270.625L318.581 270.75L317.317 271.5L315.927 272.5L313.653 274L311.631 275L309.104 276L306.071 276.875L302.533 277.625L299.88 278L296.721 278.125L293.436 277.875L290.529 277.375L287.623 276.625L283.833 275.375L280.168 273.875L277.136 272.5L275.114 271.5L271.45 269.75L268.291 268.375L262.857 266.125L258.688 264.5L255.023 263.125L248.326 260.875L243.019 259.375L238.344 258.25L234.68 257.5L230.51 256.875L225.709 256.375L223.813 256.25H215.095L211.051 256.625L206.502 257.375L201.953 258.375L197.405 259.625L192.982 261.125L189.065 262.75L185.527 264.375L182.242 266.125L179.715 267.625L176.682 269.625L174.913 270.875L173.144 272.25L171.502 273.625L170.112 274.75L169.101 275.75H168.848V276L167.837 276.875L165.184 279.5L164.047 280.875L162.783 282.25L161.393 284L160.129 285.625L158.613 287.75L157.097 290L155.581 292.375L153.938 295.25L152.043 299.125L150.4 303.25L149.136 306.75L148.505 308.875L147.873 312.5L147.241 314.375L146.862 314.625L146.736 314.5V311.375L146.862 305.625L147.115 302L147.494 298.5L148.126 295.125L149.01 291.375L150.147 287.5L151.537 283.625L152.674 281L153.938 278.625L154.949 276.75L155.833 275.375L157.223 273.375L158.866 271.25L159.877 270.125L160.761 269H161.014V268.75H161.267L161.519 268.25L162.404 267.375L163.794 266.25L164.931 265.25L167.458 263.375L169.859 261.75L173.397 259.625L176.429 258L178.83 257L181.484 256.25H181.863V256L178.325 256.25L174.913 256.75L170.491 257.625L166.195 258.75L162.025 260.125L158.487 261.625L155.454 263.125L152.422 264.875L150.905 265.875L148.757 267.375L146.736 269L145.472 270L144.209 271.125L143.198 272L141.934 273.25L141.05 274.25L140.039 275.25L138.902 276.625L137.385 278.5L135.616 281L134.226 283.25L132.836 285.75L131.194 289.5L129.93 293L128.919 296.5L128.161 299.875L127.782 302.25L127.656 303.75V308.125L128.035 311.5L128.54 314.375L129.298 317.375L130.436 320.75L131.826 323.875L133.089 326.25L134.605 328.625L135.995 330.625L137.512 332.625L138.902 334.25L139.533 335V335.25H139.786L140.671 336.25L142.819 338.375L144.209 339.5L146.104 341L148.757 342.75L150.526 343.75L153.18 345.125L156.591 346.5L160.256 347.625L164.173 348.5L167.711 349L170.617 349.25L173.397 349.375H177.44L180.852 349.25L185.148 348.875L185.527 349.25L185.022 349.625L182.368 350.5L179.336 351.125L172.133 352.25L166.826 353H154.696V352.875L150.021 352.25L145.219 351.5L141.302 350.75L136.501 349.625L132.71 348.625L127.782 347.125L122.981 345.5L118.053 343.625L114.262 342L110.471 340.25L106.175 338.125L103.269 336.5L99.8574 334.5L97.4566 333L95.5612 331.75L93.5395 330.375L91.2651 328.75L88.6116 326.75L86.969 325.375L85.5791 324.25L83.8101 322.75L82.5465 321.625L82.2938 321.5V321.25L81.7884 321L80.1457 319.375L79.893 319.25V319L79.3876 318.75L76.8605 316.25V316H76.6078L75.7233 315L73.8279 313L72.6907 311.625L71.4271 310.25L70.5426 309.125L68.7736 307L67.0047 304.625L65.4884 302.5L63.593 299.75L62.2031 297.625L60.4341 294.75L58.6651 291.75L56.7698 288.25L55.2535 285.25L53.6109 281.625L52.0946 277.875L50.7047 274L49.1884 269L47.9248 264.125L46.5349 258L45.9031 254.25L45.6504 252.375L45.145 253.5L44.6395 255.75L43.5023 263.875L43.1233 267L42.9969 268.75V272.875L43.376 277L44.1341 281.25L45.145 285.25L46.6612 289.75L47.6721 292.25L48.8093 294.75L49.8202 296.75L51.2101 299.375L52.0946 300.75L53.6109 302.875L55.2535 305.125L56.0116 306.25L56.3907 306.5V306.75L56.8961 307L57.907 307.875L58.0333 308.625L57.4015 308.5L55.8853 307.375L54.1163 305.875L51.4628 303.25L50.5783 302.25L49.3147 300.875L48.1775 299.5L46.7876 297.875L45.2713 295.875L44.2605 294.625L43.1233 293.125L41.3543 290.625L39.0798 287.25L37.6899 285L35.9209 282L34.0256 278.5L32.6357 275.75L30.8667 271.875L28.9713 267.25L27.7078 263.875L25.9388 258.5L24.9279 255L23.6643 249.625L22.7798 245L22.1481 240.875L21.6426 236.25L21.3899 232.625V223L21.769 218.125L22.4008 213.25L23.2853 208.5L24.1698 204.625L25.686 199.125L27.2023 194.25L28.5922 190.25L30.3612 185.75L31.7512 182.5L33.7729 178.5L35.6682 175L37.4372 172.25L38.9535 170.125L40.7225 167.875L43.755 163.875L45.3977 161.875L46.2822 160.875L47.5457 159.625L47.9248 159.125L46.1558 160.125L44.5132 161.375L40.9752 164.125L39.2062 165.625L37.9426 166.75L36.4264 168.125L34.2783 170.25L33.1411 171.625L31.8775 173L30.2349 175.125L29.224 176.5L27.9605 178.375L26.3178 181L24.5488 184.375L23.0326 188L21.6426 192.25L21.2636 193.125L21.1372 193.25H20.1264L20 193.125V191.75L20.7581 189.375L21.6426 186.125L23.1589 181.25L24.8016 176.5L25.8124 173.625L27.2023 170.125L28.7186 166.5L30.2349 163L31.8775 159.5L32.8884 157.5L35.0364 153.375L36.6791 150.5L38.9535 146.75L40.4698 144.375L42.4915 141.375L43.8814 139.375L45.524 137.125L48.0512 133.875L49.6938 131.875L50.4519 130.875H50.7047L50.9574 130.375L52.3473 128.75L52.6 128.375H52.8527L53.1054 127.875L55.0008 125.875L55.8853 124.875L57.0225 123.75L57.907 122.75L60.3078 120.375L61.3186 119.5L62.4558 118.375L63.4667 117.5L64.9829 116.125L66.3729 115L67.6364 113.875L69.0264 112.75L71.0481 111.125L72.6907 109.875L75.2178 108L77.4922 106.375L79.6403 104.875L84.9473 101.375L88.4853 99.25L91.3915 97.625L95.6876 95.375L98.7202 93.875L102.89 92L106.554 90.375L111.482 88.375L116.916 86.25L121.085 84.875L124.371 84.125L126.392 83.75L133.595 81.5L143.703 78.25L156.844 74.125L164.047 71.875L168.216 70.5L169.606 69.625L171.122 68.5L172.765 67.125L174.029 66L176.303 63.75L177.188 62.75L177.44 62.375H177.693L177.946 61.875L179.083 60.625L180.473 58.875L180.852 58.375H181.105L181.357 57.875L186.033 53.25H186.285L186.412 52.875L187.422 52L188.56 50.875L189.95 49.75L193.993 46L195.13 44.875L196.141 44L197.152 43L199.932 40.75L201.574 39.375L202.964 38.25L204.733 36.75L206.881 35.125L208.65 33.875L210.546 32.875L211.178 33L211.051 33.625L210.672 33.75V34H210.419L210.167 34.5L209.282 35.25L209.156 35.5H208.903L208.65 36L207.64 37L206.502 38.375L205.112 40L203.975 41.375L202.459 43.25L201.195 44.875L199.553 47.125L198.416 48.875L197.278 50.875L196.647 52.125L197.784 51.375L199.3 49.625L200.437 48.125L202.459 46.125L203.47 45.25L205.365 43.375L206.376 42.5L207.26 41.625L208.65 40.5L210.925 38.75L212.82 37.25L215.347 35.375L217.622 33.625L219.896 32L224.192 29L226.972 27.125L228.867 25.875L231.015 24.5L234.048 22.625L236.196 21.375L239.229 19.625L242.009 18.125L245.041 16.5L247.695 15L249.969 13.75L252.622 12.5L256.034 11.375L257.171 11.25V11ZM255.023 19.375L253.254 20L251.485 21L249.337 22.625L247.821 23.625L243.778 26.625L242.64 27.625L241.377 28.625L240.113 29.75L238.723 30.875L235.185 33.875L233.795 35L231.774 36.625L230.384 37.875L229.373 38.75L228.109 39.875L224.192 43.75V44H223.94L223.055 45L221.918 46.25L220.781 47.625L219.264 49.375L218.253 50.625L218.127 51H217.874L216.737 52.375L215.347 53.875L214.589 54.75V55H214.336L213.199 56.375L211.683 58.125L209.788 60.625L208.019 63L206.502 65.125L205.618 66.375L203.343 69.75L200.311 74.5L199.174 76.375L196.394 81.125L195.636 82.625L194.372 85L193.361 86.875L191.971 89.75L189.823 94.25L187.296 100.125L185.653 104.5L184.39 108.375L183.379 112.375L182.621 116.375L182.116 119.875L181.863 123V129.125L182.242 132.625L182.874 135.75L183.758 138.625L184.895 141.125L186.159 143.125L187.17 144.375L188.307 145.625L190.455 147.25L192.856 148.5L195.004 149.25L197.405 149.75L198.416 149.875H202.206L204.607 149.5L207.766 148.625L210.798 147.375L213.452 146L215.853 144.5L218.253 142.75L220.275 141.125L221.791 139.75L223.94 137.625L225.077 136.25L226.467 134.5L227.857 132.375L229.373 129.75L230.384 127.75L231.774 124.625L233.037 121.125L234.174 117.25L235.312 112.375L235.943 108.75L236.07 107.5V102L235.691 97.75L234.68 90.625L234.048 85.75L233.922 83.75V77.625L234.301 73.125L234.933 68.75L235.564 65.5L236.322 62.25L237.586 58L239.102 53.75L241.124 48.875L242.514 45.875L244.283 42.25L246.178 38.5L247.442 36.125L249.716 31.875L250.853 29.875L252.622 26.875L253.76 24.875L255.023 22.125L255.529 20.5V19.375H255.023ZM290.024 36.125L289.771 36.75L290.15 36.375L290.024 36.125ZM289.645 36.75L288.76 38.125L287.371 40.5L286.36 42.25L284.97 44.625L283.327 47.5L282.443 49.125L280.674 52.125L279.031 55L277.009 58.5L275.367 61.5L274.229 63.375L273.471 64.875L271.829 67.75L270.818 69.75L269.681 71.75L268.67 73.75L264.879 81L263.615 83.375L262.605 85.375L261.594 87.25L260.204 90.125L259.193 92.125L257.045 96.75L255.655 100L255.15 101.125L255.402 101.625L256.666 102.75L257.298 102.875L258.814 99.375L260.204 96L261.973 91.875L262.857 89.875L264.374 87.125L265.384 85.125L266.269 83.5L266.901 83L266.395 84.25L265.132 87.125L263.742 90.75L262.605 94.375L261.341 99.125L260.583 102.625L260.204 104.875L260.33 105.625L261.72 107.125L263.363 108.75L264.626 109.75L265.005 110L265.258 109.75L265.511 108.75L265.764 106.125L266.016 101.75L266.901 96.375L267.912 90.5L269.175 84.625L270.439 80.25L271.955 75.75L273.724 70.875L275.114 67.375L277.136 62.625L279.284 57.875L281.305 53.75L282.695 50.875L284.717 46.875L285.981 44.5L288.508 39.625L289.771 37.125L289.645 36.75ZM176.05 74.5L173.902 75.125L171.881 76L169.859 77.125L167.964 78.375L166.195 79.625L164.552 80.875L162.909 82.25L161.646 83.375L160.256 84.75L159.119 86.125L157.476 88.25L156.086 90.375L154.443 93.5L153.18 96.75L152.295 99.75L151.664 102.875L151.158 107.375V107.625L151.411 107.75V108.5L151.664 108L152.801 103L153.559 100.75L154.822 98.25L156.212 96L157.855 93.625L158.866 92.375L160.256 90.625L161.898 89L164.173 87.375L165.689 86.625L166.826 86.25L165.942 90.875L165.436 94.375L165.057 98.875V105.125L165.563 110.125L166.195 113.625L166.953 116.75L168.343 120.875L169.859 124.25L170.87 126L172.26 128.875L173.271 130.5L173.523 130.625L173.144 129.375L172.007 126.5L170.491 122L169.48 118.375L168.722 115L168.09 111L167.837 108.375L167.711 106.25V104.125L167.964 100.75L168.469 97.5L169.48 93.5L170.996 89L172.386 85.375L174.281 81L176.05 77.25L176.556 75.625L176.682 74.5H176.05ZM115.526 102.25L109.587 102.5L105.164 102.875L100.995 103.5L97.7093 104.25L93.1605 105.75L88.1062 107.5L87.2217 107.875L87.0953 108.25H86.8426L86.7163 108.75L87.2217 108.875H97.3302L97.2039 109.125L94.2977 110L90.7597 111.375L87.0953 113.125L84.5682 114.625L81.7884 116.375L78.6295 118.5L76.8605 119.75L73.3225 122.375L71.8062 123.625L70.5426 124.625L68.7736 126.125L67.7628 127L67.3837 127.25V127.5L66.8783 127.75L64.8566 129.625L60.6868 133.75L59.5496 135.125L58.6651 136L57.5279 137.375L56.138 139L55.0008 140.5L52.9791 143.125L51.4628 145.125L50.1992 146.875L48.8093 149L48.0512 150.25L48.1775 150.5L50.1992 148.375L51.3364 147.125L52.4736 146L53.4845 145.125L54.6217 144L55.6326 143.125L56.8961 142L58.6651 140.75L60.9395 139.25L63.593 137.625L65.8674 136.375L68.7736 134.875L72.3116 133.25L75.5969 132L79.3876 130.75L82.7992 129.875L86.5899 129.125L91.0124 128.5V128.875L90.3806 129.125L88.4853 130.375L85.9581 132.125L84.4419 133.25L82.4202 134.875L79.6403 137.125L78.2504 138.375L77.2395 139.25L75.976 140.375L73.1961 143.125L70.669 146.25L69.2791 148L67.8891 149.625L66.7519 151L65.1093 153L63.4667 155.125L62.4558 156.5L60.6868 159L59.0442 161.5L58.1597 162.875L55.3798 167.375L54.6217 168.75L52.9791 171.75L51.7155 174.125L49.6938 178.125L47.7984 182.125L45.7767 186.875L44.2605 190.75L42.9969 194.375L41.4806 199L40.0907 204L38.9535 208.625L38.1953 212.125L37.0581 219L36.5527 223.25L36.1736 228.125L36.0473 231.75V237L36.3 241.75L36.6791 246.375L36.8054 247.25L37.0581 247.375L37.1845 246.25L37.4372 241.375L37.8163 238.625L38.4481 236.25L39.3326 233.625L40.7225 230.5L41.986 228L43.755 225L45.2713 222.75L46.7876 220.75L48.1775 219.125L49.3147 217.875L50.1992 217L51.9682 215.625L53.4845 214.625L54.369 214.125L53.6109 216.125L52.8527 219.75L52.6 223V229.25L52.9791 235.375L54.1163 247.25L54.4953 253.75L54.8744 256.125L55.6326 259L56.3907 261L56.8961 261.75H57.0225L56.8961 260.375L56.3907 256.625L55.8853 252.125L55.6326 248.875V245L56.138 241.875L57.1488 237L58.286 232.5L60.055 226.875L61.445 223.125L63.0876 219.25L65.1093 215.125L67.131 211.375L69.2791 207.875L70.2899 206.25L73.4488 201.25L74.7124 199.5L75.976 197.875L77.1132 196.5L78.6295 195L79.1349 194.75L78.8822 195.375L77.1132 197.75L75.5969 200.25L74.3333 202.375L72.5643 205.625L71.0481 208.625L69.4054 212.375L68.0155 216L66.7519 219.75L65.7411 223.625L64.9829 227.625L64.4775 231.875L64.2248 236V244.25L64.6039 249.625L65.1093 253.875L65.8674 258.25L66.7519 262L67.6364 265.125L69.1527 269.625L70.5426 273.375L72.3116 277.5L74.207 281.625L75.8496 284.875L77.4922 287.75L78.6295 289.75L80.5248 292.75L81.7884 294.625L83.1783 296.625L84.8209 298.875L86.5899 301.125L87.6008 302.375L88.9907 304L90.1279 305.375L91.6442 307L92.5287 308L93.7922 309.25L94.6767 310.25L97.3302 312.875L98.3411 313.75L99.6046 315L100.616 315.875L102.005 317.125L103.395 318.25L105.164 319.75L106.428 320.75L108.702 322.5L111.229 324.375L113.504 326L116.41 328L118.558 329.375L121.717 331.375L124.623 333.125L126.266 334.125L130.309 336.5L133.216 338.25L135.49 339.5L137.764 340.5L138.902 340.75L138.27 340.25L136.501 339.125L134.732 337.75L133.216 336.375L130.815 334L129.678 332.625L128.288 331L126.898 329.5L125.381 327.75L124.118 326.25L122.728 324.375L121.338 322.25L119.822 319.625L118.432 317L116.789 313.25L115.526 309.75L114.515 306.375L113.504 301.875L112.872 297.5L112.619 294.5V289L112.998 285.125L113.757 280.875L114.641 277.375L115.778 273.75L116.916 270.625L118.432 267.25L119.695 264.875L121.717 261.625L123.486 259.125L125.002 257.125L126.14 255.75L127.782 253.875L128.919 252.625L131.447 250.125L132.457 249.25L133.847 248.125L135.49 246.875L137.259 245.625L139.786 244L142.44 242.5L146.483 240.5L150.653 238.875L154.064 237.75L157.223 237L161.393 236.375L170.112 235.25H175.292L181.989 235.875L188.054 236.375L189.318 236.5V236.75L184.769 237.5L178.072 239.375L174.408 240.5L171.375 241.75L168.216 243.25L165.31 244.875L163.036 246.25L160.888 247.75L158.866 249.25L157.476 250.375L155.707 251.875L154.191 253.25L148.884 258.5L147.747 259.875L146.357 261.875L146.23 262.375L147.241 261.625L148.757 260.125L150.526 258.75L152.169 257.375L153.938 256L155.96 254.5L157.855 253.25L161.14 251.375L164.299 249.75L167.837 248.25L171.628 246.875L175.671 245.625L181.231 244.25L186.412 243.25L190.329 242.75L195.13 242.5H197.152L200.943 242.625L206.502 243.125L212.441 244L217.116 245L222.044 246.25L227.098 247.75L231.774 249.25L236.702 251L240.871 252.625L244.662 254.125L247.947 255.5L251.485 257L255.529 258.75L263.489 262.25L267.027 263.75L271.197 265.625L273.219 266.625L277.515 268.625L281.811 270.5L284.717 271.625L288.508 272.875L291.54 273.625L294.699 274.125L296.089 274.25H299.374L301.522 274L304.302 273.375L308.093 272.125L312.136 270.625L312.768 270.375V270.25H304.808L300.891 270L297.226 269.625L293.309 268.875L289.771 267.875L285.222 266.25L281.432 264.625L277.262 262.625L274.103 261L271.197 259.375L268.038 257.625L265.258 256L262.226 254.25L258.688 252.25L255.402 250.5L252.496 249L249.464 247.5L245.926 245.875L241.124 243.75L235.817 241.625L230.636 240L225.961 238.625L223.434 237.375L221.412 236.25L219.391 235.25L219.012 235.125L219.138 234.875L220.275 234.75L222.929 235L225.835 235.5L230.889 236.625L234.553 237.625L237.965 238.75L242.64 240.625L247.695 242.875L252.117 245L256.54 247.25L259.446 248.875L262.226 250.375L265.132 252L267.659 253.25L270.06 254.5L273.977 256.5L276.63 258L279.915 259.75L283.201 261.375L286.36 262.75L290.024 264.125L293.941 265.375L297.479 266.125L301.143 266.625L305.692 267H312.895L315.801 266.75L320.855 266.375L322.245 266L323.003 265.375L323.256 264.5L323.129 263L322.371 261.625L321.74 260.875L319.971 259.75L318.202 259.125L316.18 258.75L311.884 258.375L308.725 258.125L305.06 257.5L300.385 256.5L295.963 255.25L293.309 254.25L290.656 253L287.75 251.375L285.349 249.875L283.453 248.625L280.926 246.875L278.526 245.125L276.251 243.375L274.229 241.875L272.334 240.375L270.691 239.125L268.417 237.375L266.143 235.75L264.121 234.25L262.099 232.875L259.193 230.875L257.045 229.5L254.391 227.875L252.243 226.625L249.084 224.875L244.03 222.375L239.229 220.375L234.427 218.625L230.005 217.375L226.467 216.625L222.044 215.875L216.611 215.375H210.04L207.513 215.625L204.354 216.25L202.585 216.75L201.069 217.375L201.574 216.625L203.343 215.5L206.881 213.625L209.661 212.375L213.831 211L217.116 210.25L220.654 209.75H226.088L229.247 210.25L230.889 210.75H231.268L231.142 210.25L230.131 208.75L228.741 207L227.225 205.25L224.445 202.5L223.055 201.375L221.412 200L219.012 198.25L216.737 196.625L213.452 194.5L211.051 193L208.019 191.25L204.86 189.5L199.553 186.875L196.394 185.5L192.224 183.875L188.939 182.75L184.516 181.375L180.978 180.5L168.469 178.5L164.299 178L162.151 177.875L157.476 177.75H153.306L146.609 177.875L145.472 178L145.598 178.5L147.367 179.125L152.295 180L154.443 180.625L157.35 181.875L160.129 183.25L162.657 184.75L164.931 186.375L166.574 187.75L168.09 189.125L168.974 190L170.112 191.375L171.502 193.25L172.512 195L167.964 194.125L164.805 193.5L160.256 193L157.855 192.875H153.685L150.4 193.125L147.115 193.625L142.187 194.625L138.396 195.5L133.974 196.75L130.941 197.75L127.529 199.125L125.508 200L123.107 201.25L120.58 202.625L117.168 204.875L115.652 206L112.367 209L111.103 210.125L109.713 211.25L108.576 212.25V212.5L108.071 212.75L107.312 213.5V213.75L106.807 214L105.922 215.125L104.912 216.5L104.533 217.25L105.038 217L106.302 215.875L108.071 214.5L109.46 213.5L111.103 212.5L114.009 211L116.663 209.875L120.201 208.625L122.981 207.875L126.392 207.25L127.529 207.125H133.216L136.122 207.5L139.154 208.125L142.313 209L146.23 210.5L148.757 211.625L151.664 213.125L154.191 214.625L157.602 216.875L159.877 218.5L161.898 220.125L163.288 221.5L163.794 222.375L159.624 221.625L155.202 221.125L153.685 221L149.263 220.875L146.104 221L141.429 221.5L137.764 222.25L134.732 223.125L132.205 224L129.678 225.125L126.519 226.75L123.991 228.375L121.97 229.875L120.327 231.25L118.305 233.125L117.168 234.25L116.284 235.25L114.515 237.375L112.998 239.5L111.482 241.875L110.219 244.125L109.208 246.125L107.944 248.875L106.681 252.375L105.796 255.75L105.164 259.25L104.406 264.75L103.901 268.375L103.522 271.5V273.75L103.901 276.375L103.395 276.125L102.764 273L102.005 267.875L101.626 264.25L101.374 260.25V253L101.753 248.125L102.258 244.625L103.143 240.125L104.153 236.625L105.417 233.125L107.186 229.5L108.576 227.125L109.84 225.25L111.356 223.125L112.493 221.625L114.136 220L115.147 219.125L115.905 218.25L115.778 218L114.515 218.375L112.872 219L110.471 220.25L108.45 221.375L105.922 223.125L103.901 224.75L102.511 225.875L98.5938 229.75L97.4566 231.125L95.9403 232.875L94.045 235.375L92.0233 238L90.6333 240L89.8752 241.375L89.4961 241.5L90.1279 238L91.2651 233.125L92.7814 227.875L94.045 224.125L95.0558 221.5L96.4457 218.25L97.7093 215.5L98.9729 213.125L100.868 209.875L102.258 207.75L103.395 206.125L104.406 204.75L106.049 202.625L107.565 200.875L108.702 199.625V199.375H108.955L109.84 198.375L112.746 195.5L113.757 194.625L115.399 193.25L117.168 191.875L119.19 190.375L120.959 189.125L123.486 187.375L125.634 186L127.529 184.875L130.436 183.375L132.836 182.375L135.364 181.625L137.891 181.125V180.875L136.501 180.5L133.847 180.25H129.551L126.013 180.5L122.349 181.125L120.327 181.75L120.074 181.875L120.453 181.25L121.843 179.875L122.602 179.25L124.371 177.5L125.76 176.375L127.782 174.75L130.436 172.75L132.584 171.375L134.605 170.25L137.006 169.125L139.66 168.125L143.071 167.125L146.988 166.25L150.779 165.625L154.317 165.25L156.339 165.125H163.415L167.837 165.5L171.881 166.125L177.314 167.25L181.736 168.25L187.549 169.75L191.466 170.875L195.257 172L200.437 173.75L205.491 175.625L208.019 176.75L213.199 179L213.578 178.875L213.199 178.5L210.798 177.375L208.65 176.25L205.744 174.875L201.953 173L198.542 171.375L195.004 169.75L190.581 167.75L187.17 166.25L181.989 163.875L175.671 160.875L168.848 157.5L166.447 156.25L163.415 154.625L160.509 153L156.971 151L152.927 148.625L149.895 146.875L146.483 145L142.819 143.125L138.902 141.375L134.858 139.875L130.941 138.75L128.667 138.25L125.381 137.75L123.991 137.625H118.558L115.652 138L112.619 138.75L109.334 140L107.565 140.875L104.28 142.375L104.659 141.75L105.796 140.5L106.933 139.375L107.186 139.25V139L107.691 138.75L109.587 137.25L111.735 135.875L114.136 134.5L117.295 133L120.074 132L122.981 131.25L125.634 130.875L128.035 130.75L130.562 130.875L132.963 131.25L136.501 132.25L139.786 133.25L141.302 133.625L140.797 132.75L139.786 131.75L138.143 130.5L136.248 129.25L129.93 125.5L127.656 124.25L124.75 122.75L120.959 121L117.042 119.5L113.63 118.375L109.713 117.375L106.681 116.875L104.28 116.625H100.363L97.4566 117L95.1822 117.625L93.6659 118.25L93.0341 118.375L93.6659 117.75L95.5612 116.875L97.7093 116.25L100.236 115.75L104.406 115.25L106.428 115.125H111.609L114.767 115.5L118.684 116.25L122.475 117.25L126.14 118.5L129.046 119.75L132.205 121.25L135.111 122.875L138.27 124.875L140.291 126.25L142.566 127.875L144.714 129.625L145.978 130.625L147.62 132L148.126 132.375L147.873 131.75L146.483 130L145.472 128.5L144.082 126.25L142.819 123.625L141.934 121L141.302 118L140.671 113.375L140.165 111.125L139.533 109.625L138.649 108.25L137.385 107L135.364 105.75L133.468 104.875L130.815 104L127.529 103.25L124.75 102.75L120.959 102.375L119.064 102.25H115.526ZM213.957 178.875L213.578 179.125L214.336 179.5L214.589 179.375L214.084 178.875H213.957ZM215.095 179.375L214.716 179.625L216.737 180.5H216.99L216.864 180L215.726 179.625L215.095 179.375ZM217.243 180.25V180.5L216.99 180.625L217.874 180.875L217.748 180.375L217.243 180.25ZM218.506 180.875L218.127 181.125L219.012 181.375V181L218.506 180.875ZM219.517 181.375L219.264 181.625L219.896 181.75L219.517 181.375ZM326.036 245.25L324.393 245.375L323.003 245.875L322.371 246.375L322.498 247.125L323.509 248L325.025 248.875L326.667 249.375L327.299 249.5H328.815L329.574 249.125L330.079 248.625L330.205 248.25V247.25L329.826 246.375L329.195 245.875L328.436 245.625L326.036 245.25Z" fill="#0177FB"/>
<path d="M228.488 47.75H228.741L228.615 48.375L226.972 51L225.835 52.875L223.308 57.875L221.918 60.75L219.391 65.75L218.001 69L216.737 72.25L215.474 75.875L213.957 80.25L212.188 85.625L210.672 90.125V90.375L212.82 86L214.21 83.125L215.347 81.125L216.864 78.625L218.253 76.375L219.264 74.75L220.907 72.375L222.55 70.25L223.56 68.75L223.94 68.375H224.192L224.066 69.25L222.044 73.25L220.275 77.25L218.759 81.125L217.243 85.375L215.221 91.75L214.21 95.125L213.326 98.25L212.567 101L214.842 97.25L215.853 95.75L217.622 93.375L218.633 92L219.896 90.25L221.665 87.875L222.55 86.75L223.055 86.25H223.308L223.055 87.125L222.044 88.75L221.286 90L220.402 91.75L219.264 94.375L217.495 98.25L216.737 100.125L215.726 103.375L214.716 107.625L213.073 115.625L212.694 117.25V117.75L212.947 117L213.199 116.875L213.578 115.625L214.463 113.25L216.358 109.5L217.622 107.125L219.643 103.25L221.412 100.5L222.55 98.625L223.434 97.375H223.94L223.687 98.75L222.423 104.25L221.16 109.625L220.022 114.125L218.885 117.875L217.622 121.25L216.232 124.25L214.842 126.625L213.578 128.375L212.441 129.75L211.809 130.5H211.557V130.75H211.304V131L210.293 131.875L208.398 133.375L205.997 134.875L203.217 136.25L200.058 137.375L197.405 138.125L195.383 138.625H194.751L195.13 138L196.394 136.375L197.91 134.125L198.921 132.125L199.932 129.5L200.816 126.5L201.448 123.625L201.701 121.25V119L201.448 117.125L201.069 115.625L200.564 115.75L199.047 117.25L197.657 119.25L197.152 120H196.773L196.899 118.75L199.679 104.875L200.564 99L201.448 93L202.206 89.375L203.091 86.375L204.102 83.5L205.239 80.75L206.376 78.25L207.513 75.875L209.156 73L210.798 70.25L212.567 67.5L213.957 65.5L215.221 63.75L216.737 61.625L219.391 58.125L220.907 56.25L222.423 54.25L223.94 52.5L225.077 51.125L226.214 49.875L226.719 49.25L227.73 48.375L228.488 47.75ZM212.441 118L212.315 118.5L212.567 118H212.441Z" fill="#0177FB"/>
</svg>
