<svg width="285" height="40" viewBox="0 0 285 40" fill="none" xmlns="http://www.w3.org/2000/svg">
<path d="M17.3884 31.326C18.7522 31.326 19.8698 31.1971 20.7411 30.9392C21.6503 30.6446 22.3132 30.2026 22.73 29.6133C23.1467 29.0239 23.355 28.2689 23.355 27.3481C23.355 26.4273 23.1277 25.6722 22.6731 25.0829C22.2564 24.4936 21.6124 24.0516 20.7411 23.7569C19.8698 23.4622 18.7522 23.3149 17.3884 23.3149H9.09199V31.326H17.3884ZM17.1611 15.3039C18.6386 15.3039 19.7182 15.0276 20.4001 14.4751C21.1199 13.9226 21.4798 13.1123 21.4798 12.0442C21.4798 10.9761 21.1199 10.1473 20.4001 9.55801C19.7182 8.96869 18.6386 8.67403 17.1611 8.67403H9.09199V15.3039H17.1611ZM32.5038 29.6685C32.5038 31.9889 31.7841 33.8674 30.3445 35.3039C28.9428 36.7403 27.0676 37.7716 24.7188 38.3978C22.3701 39.0239 19.7182 39.337 16.7633 39.337H0V0.662981H16.536C18.9606 0.662981 21.1767 1.04972 23.1846 1.8232C25.2303 2.55985 26.8592 3.66482 28.0715 5.13812C29.2838 6.61142 29.8899 8.37937 29.8899 10.442C29.8899 12.2836 29.4353 13.7937 28.5261 14.9724C27.6548 16.151 26.5183 17.035 25.1166 17.6243C23.7528 18.1768 22.2375 18.5267 20.5706 18.674V19.779C22.4648 19.8527 24.3211 20.221 26.1395 20.884C27.9579 21.547 29.4732 22.6151 30.6855 24.0884C31.8977 25.5249 32.5038 27.3849 32.5038 29.6685Z" fill="#1B1B1B"/>
<path d="M43.5709 31.326H61.0162V39.337H34.479V0.662981H43.5709V31.326Z" fill="#1B1B1B"/>
<path d="M100.145 39.337H92.0759L89.5756 32.0994H71.5621L69.005 39.337H60.9358L75.0852 0.662981H85.9956L100.145 39.337ZM86.9048 24.9171L81.1087 8.67403H79.9722L74.176 24.9171H86.9048Z" fill="#1B1B1B"/>
<path d="M125.137 27.4586L125.194 27.3481H135.081V27.4033C134.589 28.8766 133.736 30.5525 132.524 32.4309C131.312 34.3094 129.361 36.0405 126.671 37.6243C124.019 39.2081 120.648 40 116.556 40C112.162 40 108.468 39.0239 105.475 37.0718C102.483 35.0829 100.267 32.5783 98.8269 29.558C97.4253 26.5009 96.7244 23.3333 96.7244 20.0552C96.7244 16.7403 97.4253 13.5543 98.8269 10.4972C100.267 7.44015 102.483 4.93554 105.475 2.98342C108.468 0.994474 112.162 0 116.556 0C120.686 0 124.076 0.810312 126.728 2.43094C129.418 4.01473 131.369 5.74586 132.581 7.62431C133.793 9.50276 134.627 11.1786 135.081 12.6519H125.194C124.512 11.5101 123.451 10.4604 122.012 9.50276C120.61 8.50829 118.772 8.01105 116.499 8.01105C114.113 8.01105 112.105 8.60037 110.476 9.779C108.885 10.9576 107.711 12.4678 106.953 14.3094C106.195 16.1142 105.816 17.9926 105.816 19.9447C105.816 21.9337 106.195 23.849 106.953 25.6906C107.711 27.5322 108.885 29.0424 110.476 30.221C112.105 31.3996 114.094 31.9889 116.443 31.9889C118.716 31.9889 120.553 31.5285 121.955 30.6077C123.356 29.6501 124.417 28.6004 125.137 27.4586Z" fill="#1B1B1B"/>
<path d="M156.233 19.779V20.884L173.565 39.337H161.234L147.312 24.3094H146.175V39.337H137.083V0.662981H146.175V16.2983H147.312L161.802 0.662981H174.133L156.233 19.779Z" fill="#1B1B1B"/>
<path d="M188.204 8.67403V15.6354H201.103V23.3702H188.204V39.337H179.112V0.662981H204.285V8.67403H188.204Z" fill="#1B1B1B"/>
<path d="M223.768 31.9889C226.154 31.9889 228.143 31.3996 229.734 30.221C231.363 29.0424 232.557 27.5322 233.314 25.6906C234.11 23.849 234.507 21.9337 234.507 19.9447C234.507 17.9926 234.11 16.1142 233.314 14.3094C232.557 12.4678 231.363 10.9576 229.734 9.779C228.143 8.60037 226.154 8.01105 223.768 8.01105C221.381 8.01105 219.373 8.60037 217.744 9.779C216.153 10.9576 214.979 12.4678 214.221 14.3094C213.463 16.1142 213.085 17.9926 213.085 19.9447C213.085 21.9337 213.463 23.849 214.221 25.6906C214.979 27.5322 216.153 29.0424 217.744 30.221C219.373 31.3996 221.381 31.9889 223.768 31.9889ZM223.824 0C228.219 0 231.894 0.994474 234.848 2.98342C237.841 4.93554 240.038 7.44015 241.44 10.4972C242.88 13.5543 243.599 16.7403 243.599 20.0552C243.599 23.3333 242.88 26.5009 241.44 29.558C240.038 32.5783 237.841 35.0829 234.848 37.0718C231.894 39.0239 228.219 40 223.824 40C219.43 40 215.736 39.0239 212.744 37.0718C209.751 35.0829 207.535 32.5783 206.095 29.558C204.693 26.5009 203.993 23.3333 203.993 20.0552C203.993 16.7403 204.693 13.5543 206.095 10.4972C207.535 7.44015 209.751 4.93554 212.744 2.98342C215.736 0.994474 219.43 0 223.824 0Z" fill="#1B1B1B"/>
<path d="M271.021 19.8343L285 39.337H273.919L263.122 24.2541H261.986L251.246 39.337H240.165L254.087 19.8343L240.165 0.662981H251.303L262.554 16.2431L273.862 0.662981H285L271.021 19.8343Z" fill="#1B1B1B"/>
</svg>
